<svg id="svg" version="1.1" xmlns="http://www.w3.org/2000/svg" xmlns:xlink="http://www.w3.org/1999/xlink" width="400" height="354.4419134396355" viewBox="0, 0, 400,354.4419134396355"><g id="svgg"><path id="path0" d="M317.165 0.887 C 316.639 1.374,316.331 1.773,316.481 1.773 C 316.631 1.773,316.556 2.011,316.315 2.301 C 316.074 2.591,315.736 2.742,315.563 2.635 C 315.390 2.528,315.248 2.609,315.248 2.816 C 315.248 3.022,314.917 3.523,314.512 3.928 C 314.088 4.351,313.866 4.901,313.988 5.219 C 314.173 5.701,314.121 5.709,313.599 5.281 C 313.062 4.840,313.019 4.869,313.196 5.559 C 313.333 6.090,313.256 6.276,312.947 6.158 C 312.684 6.057,312.403 6.367,312.267 6.908 C 312.140 7.415,311.897 7.744,311.726 7.639 C 311.556 7.534,311.250 7.926,311.046 8.511 C 310.820 9.158,310.425 9.577,310.036 9.580 C 309.494 9.585,309.478 9.637,309.929 9.929 C 310.404 10.236,310.191 10.434,309.496 10.329 C 309.356 10.308,309.071 10.608,308.863 10.996 C 308.656 11.385,308.602 11.702,308.743 11.702 C 308.885 11.702,308.691 11.953,308.312 12.260 C 307.934 12.567,307.863 12.715,308.156 12.589 C 308.504 12.438,308.473 12.535,308.067 12.867 C 307.356 13.450,307.225 14.001,307.890 13.612 C 308.134 13.470,308.029 13.700,307.658 14.123 C 306.919 14.966,306.467 15.167,306.960 14.434 C 307.130 14.181,306.983 14.287,306.633 14.669 C 306.284 15.052,306.079 15.578,306.179 15.839 C 306.345 16.271,305.952 16.475,305.204 16.345 C 305.043 16.317,305.004 16.444,305.117 16.626 C 305.404 17.091,304.958 18.123,304.573 17.885 C 304.398 17.777,304.255 17.952,304.255 18.273 C 304.255 18.595,303.896 19.175,303.457 19.562 C 303.019 19.950,302.859 20.165,303.103 20.042 C 303.347 19.918,303.546 19.985,303.546 20.192 C 303.546 20.398,303.405 20.567,303.232 20.567 C 303.059 20.567,302.653 21.126,302.329 21.809 C 302.005 22.491,301.614 23.050,301.461 23.050 C 301.308 23.050,301.176 23.249,301.168 23.493 C 301.140 24.384,300.865 24.922,299.823 26.128 C 299.238 26.804,298.812 27.448,298.878 27.558 C 298.943 27.668,298.863 27.855,298.701 27.975 C 298.209 28.334,296.670 31.333,297.119 31.056 C 297.348 30.914,297.215 31.369,296.823 32.066 C 296.432 32.763,296.213 33.333,296.338 33.333 C 296.462 33.333,296.284 33.642,295.942 34.020 C 295.600 34.398,295.425 34.877,295.554 35.084 C 295.682 35.291,295.643 35.461,295.468 35.461 C 294.867 35.461,294.342 37.108,294.797 37.566 C 295.116 37.888,295.067 37.930,294.588 37.747 C 294.096 37.560,294.015 37.643,294.205 38.139 C 294.360 38.542,294.311 38.685,294.069 38.535 C 293.644 38.272,293.152 39.251,293.459 39.748 C 293.569 39.926,293.490 40.071,293.283 40.071 C 293.077 40.071,292.908 40.470,292.908 40.957 C 292.908 41.445,292.748 41.844,292.553 41.844 C 292.358 41.844,292.199 42.013,292.199 42.220 C 292.199 42.426,292.398 42.475,292.642 42.329 C 292.946 42.146,292.933 42.250,292.601 42.660 C 292.192 43.163,292.037 43.836,291.867 45.833 C 291.854 45.980,291.724 46.080,291.578 46.057 C 290.921 45.954,290.820 46.158,291.128 46.969 C 291.410 47.710,291.370 47.805,290.854 47.612 C 290.306 47.407,290.299 47.449,290.780 48.051 C 291.090 48.439,291.127 48.606,290.869 48.451 C 290.625 48.305,290.426 48.354,290.426 48.561 C 290.426 49.205,290.308 49.447,289.648 50.156 C 288.976 50.876,288.770 51.607,289.337 51.256 C 289.519 51.144,289.784 51.254,289.926 51.501 C 290.068 51.748,290.060 51.838,289.908 51.701 C 289.486 51.321,288.657 52.327,288.575 53.320 C 288.535 53.806,288.359 54.116,288.185 54.008 C 288.008 53.899,287.973 54.186,288.106 54.654 C 288.269 55.231,288.239 55.345,288.011 55.015 C 287.623 54.456,287.048 55.087,287.411 55.674 C 287.532 55.869,287.471 56.028,287.275 56.028 C 287.080 56.028,286.982 56.348,287.057 56.738 C 287.132 57.128,287.043 57.447,286.859 57.447 C 286.675 57.447,286.525 57.761,286.525 58.145 C 286.525 58.630,286.357 58.779,285.975 58.632 C 285.526 58.460,285.470 58.608,285.670 59.441 C 285.805 60.002,285.794 60.349,285.646 60.212 C 285.498 60.075,285.196 60.162,284.976 60.405 C 284.362 61.082,283.301 63.183,283.695 62.939 C 283.886 62.821,284.043 62.968,284.043 63.266 C 284.043 63.634,283.844 63.733,283.422 63.575 C 282.876 63.370,282.860 63.415,283.295 63.949 C 283.726 64.479,283.715 64.527,283.206 64.332 C 282.815 64.182,282.624 64.296,282.624 64.678 C 282.624 64.992,282.454 65.248,282.246 65.248 C 282.031 65.248,281.953 65.593,282.065 66.046 C 282.174 66.485,282.171 66.644,282.059 66.398 C 281.724 65.669,281.206 66.276,281.206 67.397 C 281.206 68.087,281.026 68.440,280.674 68.440 C 280.381 68.440,280.142 68.609,280.142 68.815 C 280.142 69.022,279.958 69.077,279.732 68.938 C 279.488 68.787,279.419 68.840,279.561 69.070 C 279.692 69.281,279.634 69.556,279.433 69.681 C 279.231 69.805,279.158 70.056,279.270 70.237 C 279.383 70.419,279.216 70.567,278.901 70.567 C 278.585 70.567,278.421 70.719,278.535 70.904 C 278.650 71.089,278.420 71.414,278.024 71.626 C 277.629 71.838,277.307 72.205,277.310 72.442 C 277.314 72.719,277.452 72.683,277.698 72.340 C 278.017 71.898,278.046 71.918,277.870 72.458 C 277.754 72.815,277.660 73.184,277.660 73.277 C 277.660 73.370,277.499 73.347,277.302 73.225 C 276.746 72.881,275.789 74.058,275.993 74.836 C 276.093 75.219,276.050 75.456,275.897 75.361 C 275.538 75.139,273.016 77.507,273.304 77.796 C 273.424 77.916,273.370 78.014,273.184 78.014 C 272.998 78.014,272.820 78.357,272.789 78.776 C 272.713 79.778,272.149 80.338,271.794 79.763 C 271.618 79.480,271.667 79.413,271.931 79.576 C 272.184 79.732,272.336 79.584,272.329 79.188 C 272.318 78.627,272.231 78.649,271.637 79.361 C 271.263 79.810,271.049 80.415,271.161 80.706 C 271.272 80.997,271.196 81.188,270.991 81.132 C 270.785 81.075,270.355 81.348,270.034 81.738 C 269.713 82.128,269.570 82.207,269.716 81.915 C 269.892 81.560,269.722 81.609,269.208 82.060 C 268.783 82.433,268.503 82.806,268.586 82.889 C 268.834 83.137,267.284 84.752,266.798 84.752 C 266.550 84.752,266.185 85.031,265.986 85.372 C 265.787 85.714,265.620 85.848,265.614 85.672 C 265.596 85.147,264.129 86.634,263.790 87.521 C 263.602 88.013,263.312 88.239,263.066 88.087 C 262.821 87.936,262.752 87.989,262.894 88.219 C 263.025 88.430,262.970 88.704,262.772 88.826 C 262.574 88.949,262.411 88.874,262.411 88.661 C 262.411 88.382,262.204 88.384,261.675 88.667 C 261.269 88.884,261.018 89.271,261.116 89.526 C 261.240 89.850,261.070 89.932,260.556 89.798 C 260.136 89.688,259.908 89.750,260.026 89.941 C 260.141 90.127,259.925 90.302,259.546 90.330 C 258.715 90.393,257.737 91.296,258.084 91.681 C 258.221 91.833,258.072 91.864,257.754 91.750 C 257.435 91.636,256.238 92.009,255.094 92.579 C 253.950 93.148,252.726 93.615,252.373 93.616 C 252.020 93.616,251.830 93.777,251.950 93.972 C 252.071 94.167,251.881 94.331,251.528 94.338 C 251.175 94.344,250.584 94.578,250.214 94.858 C 249.844 95.138,249.404 95.283,249.236 95.179 C 249.068 95.075,248.681 95.240,248.376 95.545 C 247.715 96.206,247.013 96.285,247.380 95.656 C 247.523 95.412,247.303 95.508,246.892 95.868 C 246.469 96.238,245.956 96.407,245.712 96.257 C 245.452 96.096,245.372 96.138,245.511 96.362 C 245.637 96.567,245.512 96.822,245.234 96.929 C 244.955 97.036,244.664 96.936,244.588 96.707 C 244.492 96.420,244.143 96.492,243.458 96.941 C 242.912 97.299,242.585 97.399,242.730 97.165 C 242.933 96.835,242.819 96.831,242.231 97.146 C 241.812 97.370,241.563 97.705,241.678 97.890 C 241.980 98.379,241.359 98.303,240.799 97.784 C 240.413 97.425,240.376 97.435,240.604 97.835 C 240.825 98.223,240.692 98.282,239.989 98.105 C 238.793 97.805,236.620 98.538,237.289 99.016 C 237.626 99.258,237.558 99.282,237.057 99.099 C 236.029 98.724,234.737 98.864,233.849 99.446 C 233.255 99.835,232.977 99.856,232.657 99.537 C 232.337 99.217,232.171 99.231,231.944 99.598 C 231.752 99.909,231.370 99.987,230.851 99.823 C 230.412 99.683,229.954 99.706,229.832 99.873 C 229.281 100.628,228.014 101.086,228.014 100.530 C 228.014 99.996,226.322 100.044,225.416 100.603 C 225.223 100.723,224.451 100.797,223.702 100.768 C 222.953 100.738,222.340 100.841,222.340 100.995 C 222.340 101.150,221.981 101.287,221.543 101.299 C 221.104 101.311,220.439 101.450,220.066 101.607 C 219.586 101.810,219.462 101.772,219.644 101.479 C 219.797 101.230,219.679 101.064,219.347 101.064 C 219.043 101.064,218.794 101.218,218.794 101.407 C 218.794 101.596,218.539 101.653,218.227 101.533 C 217.914 101.413,217.518 101.538,217.346 101.810 C 217.122 102.164,217.031 102.179,217.027 101.862 C 217.024 101.618,216.742 101.421,216.401 101.424 C 215.909 101.428,215.882 101.494,216.270 101.740 C 216.650 101.980,216.574 102.109,215.931 102.313 C 215.402 102.481,215.052 102.426,214.963 102.160 C 214.860 101.850,214.680 101.861,214.259 102.202 C 213.948 102.453,213.797 102.487,213.923 102.275 C 214.050 102.064,213.928 101.891,213.652 101.891 C 213.377 101.891,213.223 102.006,213.309 102.146 C 213.396 102.287,213.150 102.485,212.762 102.586 C 212.305 102.706,212.057 102.595,212.057 102.272 C 212.057 101.609,211.729 101.643,210.871 102.394 C 210.438 102.772,210.277 102.818,210.458 102.511 C 210.683 102.130,210.604 102.065,210.136 102.245 C 209.795 102.375,209.121 102.482,208.638 102.482 C 208.030 102.482,207.841 102.619,208.026 102.926 C 208.209 103.231,208.107 103.219,207.697 102.886 C 206.972 102.298,205.165 102.636,205.534 103.291 C 205.716 103.614,205.658 103.612,205.300 103.280 C 204.683 102.707,204.135 102.707,204.480 103.280 C 204.674 103.603,204.590 103.597,204.169 103.256 C 203.718 102.890,203.422 102.878,202.817 103.202 C 202.391 103.430,202.130 103.475,202.237 103.301 C 202.440 102.972,200.220 103.084,199.291 103.449 C 198.998 103.564,198.571 103.629,198.342 103.593 C 198.113 103.557,197.834 103.676,197.721 103.858 C 197.609 104.040,197.173 104.099,196.753 103.989 C 196.162 103.835,196.057 103.903,196.289 104.288 C 196.546 104.713,196.501 104.715,195.990 104.301 C 195.660 104.033,195.390 103.953,195.390 104.123 C 195.390 104.465,194.251 104.617,191.874 104.591 C 190.416 104.575,190.343 104.617,190.810 105.212 C 191.259 105.784,191.252 105.804,190.738 105.403 C 190.422 105.156,189.784 105.025,189.320 105.111 C 188.855 105.196,188.346 105.278,188.188 105.293 C 188.031 105.307,187.986 105.456,188.089 105.623 C 188.192 105.789,187.881 105.850,187.399 105.758 C 186.916 105.666,186.303 105.771,186.036 105.993 C 185.769 106.214,185.285 106.293,184.961 106.169 C 184.616 106.037,184.056 106.218,183.614 106.606 C 183.121 107.038,182.961 107.084,183.156 106.738 C 183.337 106.416,183.126 106.487,182.624 106.915 C 182.137 107.331,181.923 107.404,182.106 107.092 C 182.348 106.681,182.201 106.703,181.458 107.189 C 180.929 107.535,180.496 107.715,180.496 107.589 C 180.496 107.463,180.257 107.559,179.965 107.801 C 179.614 108.092,179.433 108.111,179.433 107.856 C 179.433 107.600,179.163 107.574,178.635 107.779 C 178.196 107.949,177.877 108.263,177.926 108.477 C 177.974 108.690,177.765 108.865,177.461 108.865 C 177.157 108.865,176.998 108.721,177.107 108.544 C 177.217 108.367,176.987 108.306,176.596 108.408 C 176.206 108.510,175.887 108.814,175.887 109.084 C 175.887 109.354,175.718 109.574,175.511 109.574 C 175.304 109.574,175.233 109.417,175.352 109.224 C 175.476 109.023,175.334 108.963,175.018 109.085 C 174.716 109.201,174.468 109.438,174.468 109.612 C 174.468 109.787,174.189 109.927,173.848 109.924 C 173.317 109.919,173.304 109.868,173.759 109.574 C 174.490 109.102,173.984 109.133,172.900 109.626 C 172.409 109.850,172.092 110.169,172.195 110.336 C 172.377 110.630,171.879 110.775,171.037 110.671 C 170.808 110.643,170.524 110.776,170.405 110.968 C 170.287 111.160,169.950 111.224,169.656 111.112 C 169.363 110.999,168.782 111.206,168.366 111.570 C 167.949 111.935,167.742 112.007,167.905 111.730 C 168.088 111.420,167.843 111.488,167.268 111.908 C 166.755 112.282,166.327 112.748,166.318 112.943 C 166.309 113.138,166.144 113.059,165.952 112.766 C 165.651 112.308,165.557 112.305,165.277 112.741 C 165.097 113.020,164.681 113.287,164.352 113.336 C 164.023 113.384,163.445 113.754,163.068 114.159 C 162.692 114.563,161.982 114.894,161.490 114.894 C 160.985 114.894,160.692 115.048,160.816 115.248 C 160.936 115.443,160.697 115.603,160.284 115.603 C 159.777 115.603,159.619 115.747,159.799 116.046 C 159.980 116.347,159.873 116.333,159.465 116.003 C 159.074 115.686,158.865 115.655,158.865 115.914 C 158.865 116.133,158.626 116.312,158.333 116.312 C 158.041 116.312,157.801 116.481,157.801 116.688 C 157.801 116.894,157.642 116.965,157.447 116.844 C 157.252 116.723,157.092 116.883,157.092 117.199 C 157.092 117.514,156.933 117.674,156.738 117.553 C 156.543 117.433,156.383 117.489,156.383 117.678 C 156.383 117.867,156.104 117.981,155.762 117.929 C 155.421 117.878,154.938 118.125,154.689 118.478 C 154.414 118.868,154.008 119.032,153.656 118.897 C 153.270 118.749,153.160 118.812,153.329 119.085 C 153.500 119.362,153.384 119.419,152.971 119.261 C 152.527 119.090,152.414 119.168,152.559 119.547 C 152.690 119.889,152.519 120.086,152.060 120.120 C 151.675 120.149,150.775 120.620,150.059 121.167 C 149.344 121.713,148.639 122.121,148.493 122.073 C 148.347 122.025,148.227 122.216,148.227 122.497 C 148.227 122.778,148.043 123.122,147.818 123.261 C 147.540 123.433,147.505 123.354,147.708 123.016 C 147.963 122.593,147.919 122.590,147.412 123.001 C 147.085 123.267,146.919 123.651,147.045 123.854 C 147.177 124.068,147.101 124.117,146.863 123.970 C 146.638 123.831,146.454 123.881,146.454 124.081 C 146.454 124.282,146.188 124.344,145.864 124.219 C 145.467 124.067,145.358 124.129,145.530 124.408 C 145.684 124.657,145.565 124.823,145.234 124.823 C 144.930 124.823,144.681 124.992,144.681 125.198 C 144.681 125.405,144.521 125.475,144.326 125.355 C 144.131 125.234,143.972 125.375,143.972 125.667 C 143.972 125.960,143.787 126.313,143.562 126.452 C 143.293 126.619,143.242 126.535,143.414 126.207 C 143.557 125.933,143.234 126.188,142.695 126.773 C 142.157 127.358,141.574 127.793,141.399 127.739 C 141.225 127.686,141.176 127.794,141.291 127.980 C 141.406 128.166,141.138 128.369,140.697 128.432 C 140.179 128.506,139.853 128.829,139.780 129.344 C 139.718 129.783,139.439 130.142,139.160 130.142 C 138.881 130.142,138.652 130.311,138.652 130.517 C 138.652 130.724,138.517 130.809,138.351 130.707 C 138.017 130.500,136.310 132.293,136.442 132.713 C 136.487 132.859,136.382 132.979,136.208 132.979 C 135.505 132.979,133.689 135.051,133.903 135.609 C 134.063 136.027,133.970 136.120,133.550 135.959 C 133.236 135.838,132.979 135.916,132.979 136.132 C 132.979 136.348,132.859 136.485,132.713 136.436 C 132.566 136.387,132.415 136.478,132.376 136.637 C 132.338 136.796,131.899 137.246,131.401 137.638 C 130.904 138.029,130.496 138.539,130.496 138.770 C 130.496 139.002,130.177 139.390,129.787 139.634 C 129.397 139.878,129.078 140.315,129.078 140.606 C 129.078 140.897,128.928 141.135,128.744 141.135 C 128.560 141.135,128.469 141.445,128.542 141.824 C 128.631 142.284,128.518 142.452,128.203 142.331 C 127.944 142.232,127.611 142.345,127.463 142.584 C 127.298 142.851,127.343 142.926,127.580 142.780 C 127.792 142.649,128.068 142.708,128.193 142.911 C 128.319 143.114,128.290 143.257,128.129 143.229 C 127.324 143.089,126.929 143.323,127.023 143.883 C 127.083 144.236,126.933 144.464,126.675 144.412 C 126.425 144.361,126.118 144.600,125.991 144.944 C 125.865 145.287,125.646 145.647,125.505 145.745 C 125.364 145.842,125.192 146.241,125.124 146.631 C 125.056 147.021,124.713 147.554,124.363 147.816 C 123.862 148.188,123.814 148.399,124.140 148.791 C 124.457 149.173,124.456 149.291,124.136 149.291 C 123.906 149.291,123.832 149.477,123.973 149.706 C 124.146 149.985,124.037 150.046,123.640 149.894 C 123.221 149.733,123.050 149.857,123.050 150.322 C 123.050 150.682,122.784 151.196,122.460 151.464 C 121.762 152.040,120.419 154.934,120.713 155.228 C 120.825 155.341,120.593 155.660,120.196 155.938 C 119.716 156.275,119.547 156.670,119.690 157.122 C 119.819 157.528,119.738 157.801,119.490 157.801 C 119.259 157.801,119.167 158.047,119.284 158.352 C 119.419 158.702,119.351 158.813,119.099 158.657 C 118.861 158.510,118.768 158.607,118.865 158.901 C 118.955 159.171,118.804 159.616,118.529 159.890 C 118.255 160.165,118.107 160.685,118.202 161.046 C 118.296 161.408,118.229 161.614,118.052 161.504 C 117.875 161.395,117.730 161.883,117.730 162.589 C 117.730 163.478,117.603 163.793,117.316 163.615 C 117.049 163.450,116.971 163.543,117.099 163.875 C 117.208 164.159,117.078 164.691,116.811 165.057 C 116.423 165.587,116.413 165.831,116.761 166.261 C 117.121 166.703,117.101 166.763,116.652 166.595 C 116.105 166.391,116.017 166.632,115.849 168.794 C 115.811 169.282,115.652 169.775,115.496 169.890 C 115.340 170.005,115.187 170.444,115.155 170.865 C 115.123 171.287,114.952 171.631,114.775 171.631 C 114.597 171.631,114.647 171.866,114.885 172.153 C 115.233 172.572,115.201 172.793,114.725 173.269 C 114.290 173.704,114.244 173.931,114.553 174.122 C 114.870 174.318,114.861 174.420,114.516 174.535 C 114.218 174.634,114.049 175.384,114.032 176.671 C 114.018 177.762,113.904 178.591,113.778 178.514 C 113.652 178.436,113.448 178.638,113.323 178.963 C 113.198 179.288,113.301 179.683,113.552 179.842 C 113.915 180.073,113.910 180.132,113.526 180.136 C 113.245 180.140,113.130 180.363,113.249 180.674 C 113.361 180.966,113.338 181.206,113.198 181.206 C 113.058 181.206,112.920 181.604,112.892 182.090 C 112.864 182.576,112.984 182.886,113.158 182.778 C 113.333 182.670,113.475 182.738,113.475 182.928 C 113.475 183.119,113.337 183.327,113.167 183.392 C 112.998 183.457,112.748 183.910,112.612 184.397 C 112.424 185.073,112.453 185.157,112.737 184.752 C 113.058 184.293,113.110 184.305,113.115 184.840 C 113.118 185.182,112.969 185.461,112.783 185.461 C 112.597 185.461,112.467 185.820,112.494 186.259 C 112.521 186.698,112.413 187.507,112.255 188.058 C 112.076 188.679,112.123 189.402,112.378 189.962 C 112.733 190.741,112.712 190.835,112.223 190.648 C 111.784 190.479,111.706 190.589,111.880 191.137 C 112.004 191.526,111.962 191.844,111.788 191.844 C 111.429 191.844,111.446 193.834,111.808 194.196 C 111.939 194.327,111.769 194.661,111.431 194.938 C 111.064 195.239,111.031 195.333,111.348 195.171 C 111.792 194.944,111.805 194.991,111.427 195.458 C 111.179 195.765,111.011 196.478,111.054 197.043 C 111.097 197.608,110.996 198.289,110.830 198.558 C 110.626 198.888,110.661 198.964,110.938 198.793 C 111.163 198.654,111.348 198.709,111.348 198.915 C 111.348 199.122,111.198 199.291,111.014 199.291 C 110.831 199.291,110.723 199.730,110.775 200.266 C 110.826 200.802,110.718 201.441,110.533 201.684 C 110.312 201.975,110.334 202.128,110.595 202.128 C 110.814 202.128,110.993 202.287,110.993 202.482 C 110.993 202.677,110.813 202.797,110.594 202.748 C 110.375 202.699,110.114 202.881,110.016 203.152 C 109.906 203.454,109.992 203.549,110.238 203.397 C 110.458 203.261,110.638 203.319,110.638 203.525 C 110.638 203.732,110.459 203.901,110.240 203.901 C 109.965 203.901,109.979 204.065,110.284 204.433 C 110.538 204.739,110.573 204.965,110.365 204.965 C 110.167 204.965,109.904 205.226,109.782 205.547 C 109.594 206.037,109.645 206.057,110.106 205.674 C 110.568 205.291,110.619 205.311,110.431 205.801 C 110.308 206.121,110.074 206.383,109.911 206.383 C 109.749 206.383,109.677 206.702,109.752 207.092 C 109.827 207.482,109.738 207.801,109.554 207.801 C 109.370 207.801,109.220 207.970,109.220 208.177 C 109.220 208.384,109.353 208.470,109.515 208.370 C 109.678 208.269,109.811 208.413,109.811 208.688 C 109.811 208.963,109.651 209.090,109.455 208.969 C 109.243 208.838,109.191 208.987,109.326 209.339 C 109.450 209.664,109.388 209.929,109.188 209.929 C 108.985 209.929,108.946 210.126,109.100 210.372 C 109.525 211.053,109.549 211.689,109.147 211.602 C 108.948 211.560,108.723 211.894,108.647 212.344 C 108.571 212.795,108.642 213.081,108.805 212.980 C 108.968 212.880,109.102 213.014,109.102 213.280 C 109.102 213.562,108.882 213.678,108.571 213.558 C 108.241 213.432,108.131 213.503,108.281 213.745 C 108.414 213.960,108.344 214.246,108.126 214.380 C 107.898 214.521,107.817 215.059,107.934 215.646 C 108.059 216.272,107.989 216.667,107.751 216.667 C 107.530 216.667,107.437 217.045,107.534 217.553 C 107.647 218.148,107.544 218.440,107.220 218.440 C 106.642 218.440,106.622 218.625,107.100 219.519 C 107.393 220.066,107.359 220.157,106.923 219.990 C 106.516 219.833,106.383 220.036,106.383 220.813 C 106.383 221.380,106.191 222.035,105.957 222.270 C 105.723 222.504,105.647 222.695,105.787 222.695 C 105.928 222.695,105.714 223.339,105.313 224.126 C 104.912 224.912,104.694 225.735,104.829 225.953 C 104.978 226.195,104.914 226.252,104.665 226.098 C 104.143 225.775,104.130 226.329,104.648 226.846 C 104.935 227.133,104.863 227.224,104.382 227.183 C 103.882 227.141,103.752 227.329,103.841 227.964 C 103.906 228.424,103.809 228.709,103.627 228.596 C 103.444 228.483,103.116 228.785,102.896 229.266 C 102.590 229.938,102.599 230.144,102.933 230.153 C 103.173 230.159,103.050 230.344,102.660 230.566 C 101.714 231.102,101.442 231.563,101.689 232.207 C 101.834 232.585,101.756 232.655,101.418 232.447 C 101.071 232.232,101.004 232.312,101.170 232.743 C 101.324 233.145,101.211 233.333,100.816 233.333 C 100.497 233.333,100.335 233.432,100.456 233.553 C 100.577 233.674,100.444 234.004,100.160 234.287 C 99.877 234.571,99.645 235.101,99.645 235.465 C 99.645 235.830,99.483 236.229,99.285 236.351 C 99.087 236.474,99.019 236.726,99.134 236.913 C 99.249 237.099,99.212 237.229,99.051 237.201 C 98.387 237.085,97.842 237.253,98.008 237.521 C 98.105 237.679,97.716 238.251,97.142 238.792 C 96.569 239.333,96.099 239.985,96.099 240.239 C 96.099 240.493,95.820 241.006,95.479 241.378 C 95.137 241.750,95.015 241.808,95.207 241.506 C 95.429 241.156,95.264 241.206,94.751 241.644 C 94.309 242.022,94.025 242.536,94.121 242.785 C 94.217 243.035,94.118 243.349,93.901 243.483 C 93.640 243.645,93.608 243.559,93.806 243.229 C 93.971 242.955,93.693 243.121,93.190 243.599 C 92.667 244.094,92.361 244.691,92.476 244.990 C 92.620 245.366,92.510 245.449,92.083 245.285 C 91.652 245.120,91.489 245.249,91.489 245.756 C 91.489 246.140,91.279 246.454,91.023 246.454 C 90.520 246.454,88.298 248.796,88.298 249.325 C 88.298 249.501,87.969 249.645,87.568 249.645 C 87.166 249.645,86.925 249.787,87.032 249.960 C 87.139 250.133,86.888 250.362,86.475 250.470 C 85.986 250.598,85.795 250.854,85.929 251.202 C 86.058 251.538,85.969 251.674,85.691 251.567 C 85.447 251.473,84.778 251.960,84.204 252.649 C 83.630 253.337,82.969 253.901,82.736 253.901 C 82.502 253.901,82.197 254.085,82.058 254.310 C 81.891 254.581,81.962 254.622,82.270 254.433 C 82.579 254.241,82.648 254.284,82.477 254.561 C 82.336 254.789,82.078 254.888,81.903 254.780 C 81.729 254.672,81.261 254.909,80.864 255.306 C 80.467 255.703,79.973 256.028,79.766 256.028 C 79.560 256.028,79.469 256.156,79.566 256.311 C 79.662 256.467,79.594 256.826,79.415 257.109 C 79.150 257.527,79.088 257.497,79.083 256.949 C 79.078 256.292,79.058 256.291,78.356 256.926 C 77.939 257.304,77.724 257.813,77.845 258.134 C 78.007 258.557,77.958 258.590,77.639 258.274 C 77.320 257.957,77.015 258.083,76.348 258.806 C 75.868 259.326,75.579 259.512,75.707 259.220 C 75.858 258.874,75.762 258.905,75.430 259.309 C 75.151 259.650,74.660 259.929,74.340 259.929 C 74.021 259.929,73.759 260.186,73.759 260.499 C 73.759 260.868,73.565 260.994,73.209 260.858 C 72.906 260.741,72.736 260.772,72.831 260.925 C 72.925 261.079,72.856 261.436,72.677 261.719 C 72.461 262.060,72.349 262.087,72.346 261.798 C 72.342 261.461,72.138 261.455,71.444 261.771 C 70.793 262.068,70.672 262.259,71.001 262.467 C 71.449 262.752,70.668 262.932,69.592 262.792 C 69.348 262.761,69.149 262.981,69.149 263.282 C 69.149 263.588,68.845 263.830,68.461 263.830 C 68.082 263.830,67.672 263.992,67.550 264.190 C 67.427 264.388,67.178 264.459,66.997 264.347 C 66.815 264.234,66.667 264.321,66.667 264.539 C 66.667 264.757,66.507 264.837,66.312 264.716 C 65.979 264.511,65.796 265.016,65.935 265.752 C 65.970 265.931,65.749 265.871,65.446 265.619 C 64.935 265.196,64.735 265.351,64.860 266.072 C 64.888 266.233,64.757 266.270,64.570 266.154 C 64.382 266.038,64.098 266.151,63.940 266.405 C 63.782 266.660,63.373 266.883,63.032 266.901 C 61.481 266.981,61.317 267.040,61.559 267.431 C 61.708 267.672,61.657 267.744,61.434 267.607 C 60.936 267.299,59.878 267.716,60.129 268.122 C 60.237 268.297,60.077 268.440,59.773 268.440 C 59.469 268.440,59.220 268.609,59.220 268.815 C 59.220 269.022,59.060 269.092,58.865 268.972 C 58.670 268.851,58.318 268.872,58.082 269.017 C 57.847 269.163,57.251 269.325,56.759 269.377 C 56.267 269.430,55.662 269.749,55.414 270.088 C 55.167 270.426,54.965 270.568,54.965 270.403 C 54.965 270.238,54.618 270.407,54.194 270.778 C 53.771 271.150,53.540 271.256,53.681 271.015 C 53.854 270.718,53.759 270.644,53.387 270.787 C 53.085 270.903,52.837 271.135,52.837 271.303 C 52.837 271.471,52.571 271.507,52.247 271.383 C 51.877 271.241,51.744 271.297,51.890 271.533 C 52.027 271.756,51.796 271.918,51.327 271.928 C 49.621 271.966,48.191 272.455,47.833 273.122 C 47.551 273.650,47.239 273.766,46.557 273.595 C 45.832 273.413,45.697 273.478,45.869 273.926 C 46.046 274.387,45.960 274.419,45.377 274.106 C 44.818 273.807,44.624 273.849,44.449 274.305 C 44.272 274.767,44.168 274.788,43.928 274.409 C 43.713 274.071,43.626 274.167,43.622 274.747 C 43.618 275.437,43.516 275.503,42.932 275.190 C 42.413 274.913,42.109 274.963,41.674 275.398 C 41.359 275.713,41.002 275.872,40.880 275.750 C 40.759 275.629,40.293 275.770,39.845 276.063 C 39.397 276.356,38.693 276.648,38.281 276.711 C 37.868 276.774,37.386 277.053,37.210 277.331 C 37.034 277.609,36.888 277.698,36.885 277.528 C 36.882 277.357,36.640 277.417,36.348 277.660 C 36.055 277.902,35.816 277.982,35.816 277.837 C 35.816 277.692,35.576 277.771,35.284 278.014 C 34.991 278.257,34.752 278.337,34.752 278.191 C 34.752 278.046,34.502 278.135,34.197 278.388 C 33.892 278.641,33.258 278.865,32.790 278.886 C 32.321 278.906,31.420 279.397,30.788 279.976 C 30.155 280.555,29.790 280.781,29.978 280.480 C 30.201 280.121,30.121 280.144,29.748 280.547 C 29.302 281.027,29.076 281.070,28.721 280.741 C 28.423 280.466,28.342 280.458,28.488 280.719 C 28.624 280.963,28.289 281.204,27.630 281.336 C 26.920 281.478,26.638 281.696,26.808 281.971 C 26.984 282.257,26.874 282.316,26.463 282.158 C 26.090 282.015,25.783 282.127,25.659 282.451 C 25.548 282.739,25.333 282.898,25.180 282.803 C 25.028 282.709,24.706 282.870,24.465 283.160 C 24.224 283.450,23.647 283.688,23.184 283.688 C 22.720 283.688,22.340 283.856,22.340 284.061 C 22.340 284.266,21.852 284.604,21.255 284.812 C 20.501 285.075,20.233 285.356,20.376 285.731 C 20.556 286.198,20.502 286.204,19.976 285.777 C 19.641 285.506,19.479 285.470,19.616 285.698 C 19.916 286.198,18.879 287.328,18.396 287.029 C 18.020 286.797,17.058 287.368,15.426 288.789 C 14.721 289.402,14.541 289.725,14.894 289.745 C 15.186 289.761,14.907 290.001,14.273 290.278 C 13.639 290.555,13.123 290.981,13.126 291.224 C 13.130 291.518,13.247 291.488,13.475 291.135 C 13.664 290.842,13.821 290.776,13.824 290.987 C 13.833 291.606,13.396 291.865,12.956 291.500 C 12.681 291.272,12.382 291.402,12.037 291.902 C 11.377 292.856,10.315 294.054,10.816 293.279 C 11.127 292.797,11.093 292.791,10.534 293.231 C 10.183 293.506,9.956 293.905,10.029 294.117 C 10.198 294.609,9.012 295.764,8.661 295.449 C 8.516 295.319,8.492 295.476,8.607 295.798 C 8.746 296.188,8.587 296.444,8.131 296.563 C 7.730 296.668,7.447 297.049,7.447 297.485 C 7.447 297.893,7.287 298.227,7.092 298.227 C 6.897 298.227,6.738 298.493,6.738 298.818 C 6.738 299.143,6.632 299.304,6.503 299.175 C 6.375 299.046,6.039 299.269,5.758 299.671 C 5.477 300.072,5.333 300.487,5.439 300.593 C 5.545 300.698,5.345 301.092,4.995 301.468 C 4.601 301.891,4.422 302.484,4.525 303.026 C 4.626 303.555,4.528 303.901,4.276 303.901 C 4.046 303.901,3.973 303.716,4.112 303.491 C 4.260 303.251,4.210 303.178,3.991 303.313 C 3.785 303.440,3.669 304.105,3.732 304.791 C 3.796 305.477,3.707 305.951,3.535 305.844 C 3.363 305.738,3.310 305.377,3.418 305.042 C 3.568 304.573,3.534 304.544,3.268 304.915 C 3.079 305.181,2.998 305.739,3.088 306.156 C 3.222 306.771,3.181 306.814,2.876 306.383 C 2.587 305.974,2.533 306.119,2.643 307.009 C 2.725 307.667,2.644 308.079,2.457 307.963 C 2.276 307.851,2.115 307.968,2.101 308.224 C 2.086 308.479,2.012 308.927,1.936 309.220 C 1.861 309.512,1.726 310.071,1.636 310.461 C 1.546 310.851,1.439 311.170,1.397 311.170 C 1.356 311.170,1.294 311.685,1.261 312.314 C 1.227 312.943,1.095 313.562,0.967 313.690 C 0.839 313.818,0.904 314.240,1.112 314.628 C 1.361 315.094,1.365 315.257,1.124 315.108 C 0.923 314.984,0.658 315.044,0.535 315.242 C 0.413 315.441,0.522 315.605,0.777 315.608 C 1.143 315.613,1.138 315.679,0.754 315.922 C 0.436 316.124,0.319 316.675,0.417 317.512 C 0.499 318.217,0.439 318.794,0.283 318.794 C 0.128 318.794,0.000 319.123,0.000 319.524 C 0.000 319.926,0.133 320.172,0.296 320.072 C 0.458 319.972,0.591 320.115,0.591 320.390 C 0.591 320.665,0.466 320.814,0.314 320.720 C 0.162 320.626,0.058 323.930,0.082 328.064 C 0.107 332.197,0.247 335.273,0.393 334.899 C 0.586 334.407,0.666 334.371,0.684 334.770 C 0.698 335.072,0.510 335.521,0.266 335.769 C -0.089 336.129,-0.060 336.304,0.410 336.652 C 0.826 336.960,0.902 337.256,0.672 337.668 C 0.463 338.041,0.481 338.334,0.722 338.483 C 0.983 338.644,0.971 338.869,0.683 339.216 C 0.365 339.599,0.366 339.716,0.687 339.716 C 0.917 339.716,1.014 339.865,0.902 340.046 C 0.789 340.228,0.862 340.478,1.064 340.603 C 1.265 340.727,1.312 341.018,1.168 341.248 C 0.779 341.870,0.725 342.585,1.084 342.363 C 1.256 342.257,1.334 342.802,1.257 343.575 C 1.162 344.530,1.270 345.039,1.595 345.163 C 1.879 345.272,1.995 345.643,1.881 346.078 C 1.776 346.480,1.850 346.809,2.045 346.809 C 2.240 346.809,2.485 347.137,2.590 347.538 C 2.755 348.168,2.705 348.204,2.222 347.804 C 1.715 347.383,1.713 347.438,2.202 348.404 C 2.497 348.989,2.662 349.686,2.568 349.952 C 2.329 350.624,3.225 353.212,3.613 352.973 C 3.788 352.865,3.826 353.187,3.699 353.694 L 3.469 354.610 201.735 354.610 L 400.000 354.610 400.000 177.305 L 400.000 0.000 359.061 -0.000 L 318.122 -0.000 317.165 0.887 " stroke="none" fill="#3d72a344" fill-rule="evenodd"></path><path id="path1" d="M311.553 7.137 C 311.178 7.501,310.979 7.906,311.110 8.036 C 311.240 8.167,311.348 8.079,311.348 7.840 C 311.348 7.601,311.490 7.493,311.665 7.601 C 311.840 7.709,312.083 7.536,312.205 7.217 C 312.520 6.396,312.338 6.373,311.553 7.137 M307.979 12.057 C 307.858 12.252,307.889 12.414,308.046 12.417 C 308.204 12.420,308.094 12.591,307.801 12.798 C 307.449 13.048,307.428 13.133,307.739 13.050 C 307.998 12.982,308.184 12.788,308.152 12.619 C 308.121 12.451,308.309 12.178,308.569 12.013 C 308.892 11.809,308.908 11.711,308.620 11.708 C 308.388 11.705,308.099 11.862,307.979 12.057 M306.604 14.020 C 306.307 14.795,306.935 14.945,307.564 14.251 C 308.087 13.673,308.079 13.620,307.463 13.574 C 307.096 13.546,306.709 13.747,306.604 14.020 M305.326 16.298 C 304.505 17.907,304.368 18.760,305.167 17.287 C 305.458 16.751,305.846 16.312,306.029 16.312 C 306.211 16.312,306.259 16.047,306.134 15.722 C 305.970 15.294,306.036 15.211,306.378 15.422 C 306.690 15.615,306.762 15.575,306.594 15.303 C 306.214 14.687,306.104 14.773,305.326 16.298 M303.450 18.768 C 303.325 19.247,303.419 19.394,303.764 19.262 C 304.034 19.158,304.255 18.851,304.255 18.579 C 304.255 17.842,303.656 17.983,303.450 18.768 M302.307 21.065 C 301.782 21.754,301.427 22.522,301.520 22.772 C 301.621 23.044,301.836 22.857,302.056 22.307 C 302.258 21.801,302.695 21.115,303.027 20.783 C 303.359 20.451,303.548 20.096,303.447 19.995 C 303.346 19.894,302.833 20.375,302.307 21.065 M300.653 24.025 C 298.973 26.029,298.438 27.742,300.076 25.876 C 300.584 25.297,300.929 24.823,300.842 24.823 C 300.755 24.823,300.855 24.504,301.064 24.113 C 301.532 23.239,301.346 23.199,300.653 24.025 M296.856 30.736 C 296.953 31.172,296.383 32.409,295.948 32.707 C 295.686 32.886,295.698 32.970,295.985 32.973 C 296.545 32.981,297.558 30.918,297.126 30.651 C 296.942 30.537,296.820 30.575,296.856 30.736 M295.253 34.187 C 295.135 34.656,294.928 35.329,294.792 35.682 C 294.573 36.253,294.608 36.266,295.108 35.804 C 295.417 35.518,295.592 35.154,295.495 34.995 C 295.399 34.837,295.600 34.398,295.942 34.020 C 296.475 33.432,296.485 33.333,296.015 33.333 C 295.714 33.333,295.371 33.717,295.253 34.187 M293.951 37.272 C 293.648 37.839,293.657 38.117,293.991 38.425 C 294.332 38.739,294.378 38.682,294.197 38.170 C 294.016 37.657,294.095 37.560,294.550 37.735 C 295.013 37.912,295.052 37.858,294.734 37.475 C 294.513 37.209,294.437 36.886,294.566 36.758 C 294.694 36.630,294.698 36.525,294.575 36.525 C 294.452 36.525,294.171 36.861,293.951 37.272 M292.252 42.512 C 291.989 42.679,291.830 43.074,291.898 43.389 C 291.991 43.822,292.122 43.746,292.431 43.081 C 292.657 42.595,292.816 42.201,292.786 42.204 C 292.755 42.207,292.515 42.346,292.252 42.512 M289.017 51.405 C 288.730 51.586,288.633 51.863,288.800 52.020 C 288.967 52.177,289.176 52.105,289.263 51.859 C 289.351 51.614,289.593 51.519,289.801 51.648 C 290.025 51.787,290.077 51.715,289.927 51.473 C 289.627 50.987,289.672 50.991,289.017 51.405 M287.791 53.953 C 287.429 54.567,287.301 54.965,287.507 54.838 C 287.714 54.710,287.975 54.806,288.087 55.051 C 288.199 55.296,288.196 55.117,288.079 54.654 C 287.963 54.191,288.011 53.901,288.186 54.009 C 288.362 54.117,288.528 53.898,288.557 53.522 C 288.625 52.611,288.563 52.646,287.791 53.953 M286.348 56.738 C 286.227 56.933,286.223 57.092,286.339 57.092 C 286.455 57.092,286.384 57.402,286.182 57.780 C 285.937 58.237,285.933 58.541,286.169 58.687 C 286.365 58.808,286.525 58.579,286.525 58.177 C 286.525 57.775,286.658 57.447,286.820 57.447 C 286.983 57.447,287.116 57.207,287.116 56.915 C 287.116 56.310,286.675 56.208,286.348 56.738 M282.270 64.539 C 282.012 65.020,282.008 65.248,282.257 65.248 C 282.459 65.248,282.624 64.992,282.624 64.678 C 282.624 64.309,282.818 64.183,283.174 64.320 C 283.490 64.441,283.632 64.381,283.508 64.180 C 283.167 63.628,282.682 63.768,282.270 64.539 M280.851 67.397 C 280.851 67.798,280.703 68.035,280.521 67.923 C 280.339 67.811,280.091 67.881,279.968 68.079 C 279.845 68.279,280.071 68.440,280.476 68.440 C 281.018 68.440,281.206 68.212,281.206 67.553 C 281.206 67.066,281.126 66.667,281.028 66.667 C 280.931 66.667,280.851 66.995,280.851 67.397 M279.310 69.443 C 278.620 70.206,278.564 70.567,279.137 70.567 C 279.365 70.567,279.444 70.461,279.314 70.330 C 279.183 70.200,279.341 69.801,279.664 69.444 C 279.987 69.087,280.172 68.794,280.074 68.794 C 279.977 68.794,279.633 69.086,279.310 69.443 M275.027 75.198 C 274.651 75.577,274.522 75.887,274.740 75.887 C 274.957 75.887,275.236 75.724,275.358 75.526 C 275.481 75.328,275.728 75.256,275.907 75.367 C 276.086 75.478,276.138 75.321,276.022 75.018 C 275.906 74.716,275.788 74.478,275.760 74.489 C 275.732 74.501,275.402 74.820,275.027 75.198 M272.340 79.121 C 272.340 79.787,272.269 79.818,271.720 79.387 C 271.158 78.947,271.145 78.959,271.583 79.517 C 271.849 79.857,272.188 80.058,272.338 79.966 C 272.754 79.709,273.026 78.369,272.662 78.369 C 272.485 78.369,272.340 78.707,272.340 79.121 M270.535 80.424 C 270.235 80.773,269.880 81.372,269.746 81.753 C 269.509 82.425,269.519 82.425,270.060 81.738 C 270.366 81.348,270.756 81.065,270.924 81.109 C 271.093 81.154,271.208 80.875,271.179 80.489 C 271.149 80.103,271.115 79.787,271.103 79.787 C 271.090 79.787,270.834 80.074,270.535 80.424 M267.414 83.709 C 266.948 84.097,266.674 84.523,266.806 84.655 C 266.938 84.787,267.446 84.464,267.935 83.937 C 268.968 82.822,268.648 82.682,267.414 83.709 M263.269 87.713 C 263.147 88.033,262.903 88.206,262.729 88.098 C 262.554 87.990,262.411 88.186,262.411 88.533 C 262.411 89.094,262.498 89.078,263.190 88.387 C 263.618 87.959,263.861 87.501,263.730 87.370 C 263.599 87.240,263.392 87.394,263.269 87.713 M247.725 95.301 C 247.578 95.448,247.352 95.585,247.222 95.608 C 246.499 95.730,244.681 96.652,244.681 96.895 C 244.681 97.053,245.199 96.906,245.833 96.570 C 246.467 96.234,247.145 95.935,247.340 95.906 C 247.535 95.877,247.895 95.828,248.138 95.799 C 248.382 95.769,248.582 95.585,248.582 95.390 C 248.582 94.972,248.103 94.923,247.725 95.301 M240.248 97.861 C 239.670 98.100,239.750 98.151,240.679 98.137 C 241.306 98.128,241.736 97.984,241.634 97.819 C 241.413 97.463,241.195 97.469,240.248 97.861 M236.170 98.619 C 236.170 98.942,237.286 99.357,237.521 99.122 C 237.623 99.020,237.481 98.934,237.204 98.931 C 236.788 98.926,236.793 98.868,237.230 98.592 C 237.644 98.330,237.587 98.271,236.964 98.318 C 236.527 98.351,236.170 98.486,236.170 98.619 M228.457 99.911 C 228.214 99.993,228.014 100.270,228.014 100.528 C 228.014 100.901,228.195 100.913,228.898 100.587 C 230.208 99.979,229.859 99.444,228.457 99.911 M214.388 101.730 C 214.282 101.902,213.714 102.001,213.126 101.951 C 212.419 101.891,212.057 102.022,212.057 102.340 C 212.057 102.705,212.268 102.739,212.943 102.482 C 213.431 102.297,213.830 102.241,213.830 102.357 C 213.830 102.474,214.054 102.383,214.327 102.156 C 214.706 101.842,214.858 101.843,214.963 102.160 C 215.052 102.426,215.402 102.481,215.931 102.313 C 216.574 102.109,216.650 101.980,216.270 101.740 C 215.635 101.338,214.634 101.333,214.388 101.730 M195.937 103.876 C 195.825 104.058,195.920 104.322,196.148 104.463 C 196.425 104.634,196.468 104.565,196.276 104.254 C 196.062 103.908,196.183 103.840,196.753 103.989 C 197.173 104.099,197.606 104.044,197.716 103.867 C 197.825 103.691,197.515 103.546,197.028 103.546 C 196.540 103.546,196.049 103.695,195.937 103.876 M192.553 104.610 C 192.553 105.054,192.930 105.054,193.617 104.610 C 194.047 104.332,193.996 104.265,193.351 104.261 C 192.912 104.258,192.553 104.415,192.553 104.610 M182.113 106.989 C 181.944 107.428,182.002 107.461,182.383 107.145 C 182.649 106.925,182.956 106.833,183.064 106.942 C 183.173 107.050,183.347 107.002,183.451 106.835 C 183.554 106.667,183.344 106.508,182.983 106.481 C 182.622 106.454,182.230 106.682,182.113 106.989 M177.479 108.162 C 177.356 108.360,177.083 108.415,176.871 108.284 C 176.641 108.142,176.588 108.211,176.739 108.456 C 177.103 109.044,177.896 108.960,177.896 108.333 C 177.896 107.710,177.786 107.665,177.479 108.162 M174.262 109.267 C 174.141 109.463,173.810 109.534,173.527 109.425 C 173.240 109.315,173.108 109.383,173.229 109.579 C 173.520 110.048,174.468 110.027,174.468 109.551 C 174.468 109.333,174.770 109.268,175.177 109.397 C 175.567 109.521,175.887 109.486,175.887 109.319 C 175.887 108.885,174.525 108.841,174.262 109.267 M170.356 110.721 C 169.895 111.262,169.865 111.370,170.264 111.063 C 170.585 110.816,170.984 110.638,171.151 110.668 C 171.874 110.798,172.366 110.611,172.163 110.284 C 171.804 109.702,171.075 109.878,170.356 110.721 M162.271 114.245 C 162.434 114.508,162.345 114.591,162.026 114.471 C 161.750 114.367,161.206 114.409,160.816 114.563 C 160.191 114.810,160.219 114.847,161.053 114.869 C 162.198 114.899,163.121 114.577,163.121 114.146 C 163.121 113.972,162.872 113.830,162.568 113.830 C 162.236 113.830,162.117 113.996,162.271 114.245 M159.220 115.582 C 159.220 115.765,159.404 116.029,159.629 116.169 C 159.873 116.319,159.943 116.266,159.801 116.038 C 159.664 115.816,159.904 115.588,160.367 115.499 C 161.062 115.366,161.039 115.338,160.195 115.297 C 159.659 115.270,159.220 115.398,159.220 115.582 M155.723 117.494 C 155.426 117.852,155.458 117.967,155.857 117.967 C 156.146 117.967,156.383 117.825,156.383 117.650 C 156.383 117.476,156.543 117.433,156.738 117.553 C 156.933 117.674,157.092 117.603,157.092 117.397 C 157.092 116.866,156.191 116.930,155.723 117.494 M141.499 127.116 C 141.251 127.415,141.187 127.662,141.357 127.665 C 141.527 127.668,141.427 127.825,141.135 128.014 C 140.814 128.222,140.771 128.360,141.026 128.363 C 141.259 128.366,141.681 128.038,141.963 127.635 C 142.272 127.194,142.553 127.056,142.666 127.289 C 142.783 127.530,142.823 127.514,142.770 127.247 C 142.640 126.581,141.998 126.515,141.499 127.116 M139.184 129.465 C 138.989 129.658,138.529 130.022,138.162 130.275 C 137.598 130.662,137.584 130.733,138.074 130.733 C 138.392 130.733,138.652 130.600,138.652 130.437 C 138.652 130.275,138.892 130.142,139.184 130.142 C 139.477 130.142,139.716 129.902,139.716 129.610 C 139.716 128.998,139.669 128.985,139.184 129.465 M135.057 133.322 C 134.597 133.705,134.419 134.024,134.663 134.031 C 134.907 134.037,135.106 133.907,135.106 133.742 C 135.106 133.577,135.465 133.269,135.904 133.057 C 136.343 132.845,136.520 132.661,136.298 132.648 C 136.076 132.635,135.517 132.938,135.057 133.322 M124.567 146.897 C 123.722 147.989,123.660 148.295,124.372 147.850 C 124.750 147.614,125.059 147.203,125.059 146.937 C 125.059 146.342,125.000 146.337,124.567 146.897 M123.631 148.828 C 123.267 149.191,123.370 150.000,123.780 150.000 C 123.986 150.000,124.065 149.854,123.955 149.676 C 123.845 149.497,123.947 149.287,124.182 149.209 C 124.471 149.112,124.488 148.990,124.234 148.833 C 124.027 148.706,123.756 148.703,123.631 148.828 M122.504 150.532 C 122.354 150.922,122.153 151.401,122.058 151.596 C 121.964 151.791,122.166 151.687,122.509 151.365 C 122.852 151.042,123.052 150.564,122.955 150.301 C 122.830 149.964,122.697 150.032,122.504 150.532 M117.273 162.766 C 117.171 163.155,117.232 163.564,117.409 163.673 C 117.586 163.782,117.730 163.463,117.730 162.964 C 117.730 161.878,117.528 161.790,117.273 162.766 M113.463 178.207 C 113.106 178.636,113.101 178.845,113.440 179.182 C 113.779 179.517,113.816 179.463,113.613 178.931 C 113.453 178.509,113.489 178.336,113.710 178.472 C 113.906 178.593,114.066 178.460,114.066 178.176 C 114.066 177.530,114.022 177.533,113.463 178.207 M111.713 189.784 C 111.707 190.114,111.872 190.489,112.080 190.617 C 112.705 191.004,112.793 190.596,112.242 189.868 C 111.788 189.268,111.723 189.258,111.713 189.784 M109.929 202.257 C 109.929 202.511,110.168 202.719,110.461 202.719 C 110.754 202.719,110.993 202.603,110.993 202.461 C 110.993 202.319,110.754 202.112,110.461 201.999 C 110.156 201.882,109.929 201.992,109.929 202.257 M109.884 204.500 C 109.601 206.294,109.929 207.110,110.419 205.833 C 110.540 205.517,110.481 205.375,110.280 205.499 C 110.087 205.618,109.929 205.560,109.929 205.370 C 109.929 205.179,110.121 204.960,110.355 204.882 C 110.686 204.771,110.686 204.681,110.355 204.477 C 110.121 204.332,109.909 204.343,109.884 204.500 M108.747 210.520 C 108.335 210.932,108.492 211.584,109.003 211.584 C 109.273 211.584,109.464 211.376,109.426 211.121 C 109.335 210.498,109.035 210.232,108.747 210.520 M108.156 212.728 C 108.156 213.097,108.369 213.481,108.629 213.581 C 108.889 213.681,109.102 213.545,109.102 213.280 C 109.102 213.014,108.942 212.896,108.746 213.017 C 108.534 213.148,108.482 212.998,108.617 212.647 C 108.741 212.322,108.688 212.057,108.500 212.057 C 108.311 212.057,108.156 212.359,108.156 212.728 M103.549 227.650 C 103.162 227.895,103.126 228.090,103.413 228.377 C 103.700 228.665,103.857 228.574,103.997 228.038 C 104.103 227.635,104.164 227.307,104.133 227.310 C 104.103 227.313,103.840 227.466,103.549 227.650 M98.848 236.006 C 98.095 237.012,98.085 237.116,98.739 237.116 C 99.021 237.116,99.235 237.023,99.215 236.909 C 99.195 236.795,99.303 236.416,99.456 236.066 C 99.875 235.104,99.546 235.072,98.848 236.006 M95.296 241.226 L 94.671 242.376 95.385 241.539 C 95.993 240.826,96.318 240.065,96.011 240.073 C 95.962 240.074,95.640 240.593,95.296 241.226 M90.071 246.517 C 89.583 246.929,89.424 247.163,89.716 247.037 C 90.009 246.912,90.527 246.710,90.869 246.590 C 91.210 246.470,91.489 246.230,91.489 246.058 C 91.489 245.560,91.026 245.710,90.071 246.517 M87.825 248.818 C 87.486 249.157,87.534 249.645,87.905 249.645 C 88.079 249.645,88.314 249.406,88.426 249.113 C 88.634 248.573,88.256 248.387,87.825 248.818 M82.979 253.191 C 82.697 253.365,82.585 253.625,82.729 253.769 C 82.873 253.913,83.177 253.845,83.404 253.617 C 83.940 253.081,83.641 252.782,82.979 253.191 M75.847 258.954 C 75.431 259.747,75.433 259.748,76.190 259.076 C 77.035 258.326,77.112 258.156,76.608 258.156 C 76.420 258.156,76.078 258.515,75.847 258.954 M72.960 260.795 C 72.619 261.044,72.340 261.430,72.340 261.653 C 72.340 261.875,72.673 261.724,73.079 261.318 C 73.938 260.459,73.864 260.134,72.960 260.795 M69.660 262.733 C 69.769 262.909,70.178 262.971,70.568 262.869 C 71.543 262.613,71.456 262.411,70.369 262.411 C 69.870 262.411,69.551 262.556,69.660 262.733 M63.564 265.968 C 63.125 266.145,62.766 266.427,62.766 266.596 C 62.766 267.100,63.784 266.943,63.989 266.408 C 64.094 266.135,64.365 266.027,64.591 266.167 C 64.847 266.325,64.907 266.267,64.750 266.012 C 64.611 265.787,64.467 265.613,64.429 265.625 C 64.392 265.638,64.003 265.792,63.564 265.968 M59.106 268.260 C 58.703 268.554,58.607 268.812,58.844 268.959 C 59.051 269.086,59.220 269.034,59.220 268.841 C 59.220 268.649,59.499 268.436,59.840 268.369 C 60.182 268.301,60.300 268.144,60.102 268.020 C 59.905 267.895,59.457 268.003,59.106 268.260 M46.960 273.219 C 46.360 273.673,46.350 273.738,46.876 273.748 C 47.206 273.754,47.581 273.589,47.710 273.381 C 48.096 272.756,47.689 272.668,46.960 273.219 M40.954 275.538 C 40.831 275.736,40.609 275.823,40.460 275.731 C 40.311 275.638,40.189 275.780,40.189 276.046 C 40.189 276.425,40.328 276.441,40.839 276.122 C 41.197 275.899,41.489 275.595,41.489 275.447 C 41.489 275.066,41.217 275.112,40.954 275.538 M36.016 277.269 C 35.578 277.440,35.473 277.625,35.726 277.781 C 35.943 277.916,36.223 277.861,36.348 277.660 C 36.472 277.458,36.722 277.385,36.904 277.497 C 37.085 277.610,37.234 277.532,37.234 277.326 C 37.234 276.899,36.991 276.887,36.016 277.269 M30.674 279.787 C 30.345 280.151,29.867 280.369,29.612 280.271 C 29.358 280.173,29.043 280.267,28.912 280.478 C 28.781 280.690,28.526 280.771,28.344 280.659 C 28.163 280.546,28.014 280.614,28.014 280.808 C 28.014 281.003,28.333 281.138,28.723 281.108 C 29.113 281.079,29.433 280.920,29.433 280.755 C 29.433 280.590,29.571 280.540,29.740 280.644 C 29.909 280.749,30.332 280.520,30.680 280.135 C 31.163 279.601,31.427 279.529,31.791 279.832 C 32.091 280.080,32.270 280.094,32.270 279.869 C 32.270 279.181,31.269 279.130,30.674 279.787 M23.759 283.042 C 23.175 283.287,23.036 283.475,23.350 283.592 C 23.613 283.690,24.086 283.512,24.402 283.197 C 25.056 282.542,24.987 282.526,23.759 283.042 M19.577 285.829 C 19.329 286.227,18.982 286.464,18.807 286.355 C 18.632 286.247,18.395 286.310,18.281 286.495 C 17.856 287.183,18.798 287.237,19.380 286.558 C 19.713 286.170,20.114 285.932,20.272 286.029 C 20.430 286.127,20.464 285.959,20.348 285.657 C 20.085 284.971,20.118 284.964,19.577 285.829 M13.458 290.368 C 12.994 290.744,12.763 291.197,12.911 291.438 C 13.227 291.948,13.922 291.587,13.728 291.014 C 13.652 290.788,14.002 290.416,14.507 290.188 C 15.098 289.922,15.218 289.764,14.844 289.745 C 14.525 289.729,13.901 290.010,13.458 290.368 M10.993 292.553 C 10.700 292.742,10.600 292.899,10.770 292.902 C 10.941 292.905,10.861 293.178,10.593 293.508 C 10.266 293.911,10.251 294.021,10.548 293.843 C 10.944 293.605,11.874 292.191,11.626 292.204 C 11.570 292.207,11.285 292.364,10.993 292.553 M9.072 294.909 C 8.949 295.229,8.932 295.575,9.034 295.677 C 9.136 295.779,9.220 295.667,9.220 295.428 C 9.220 295.189,9.404 295.107,9.629 295.247 C 9.871 295.396,9.943 295.345,9.804 295.121 C 9.675 294.912,9.771 294.661,10.016 294.562 C 10.299 294.447,10.250 294.372,9.878 294.354 C 9.558 294.339,9.195 294.588,9.072 294.909 M6.756 298.016 C 6.485 298.522,6.370 299.042,6.501 299.172 C 6.631 299.302,6.738 299.156,6.738 298.848 C 6.738 298.539,6.921 298.225,7.145 298.150 C 7.370 298.075,7.484 297.808,7.400 297.556 C 7.306 297.271,7.060 297.447,6.756 298.016 M4.399 302.073 C 4.538 302.298,4.493 302.482,4.298 302.482 C 4.104 302.482,3.969 302.801,3.998 303.191 C 4.028 303.582,4.159 303.901,4.289 303.901 C 4.697 303.901,4.889 302.123,4.508 301.887 C 4.300 301.759,4.254 301.838,4.399 302.073 M3.546 304.808 C 3.546 305.136,3.379 305.258,3.137 305.108 C 2.883 304.951,2.824 305.011,2.980 305.264 C 3.119 305.490,3.055 305.674,2.837 305.674 C 2.619 305.674,2.543 305.840,2.669 306.044 C 2.795 306.247,2.699 306.653,2.457 306.945 C 2.108 307.366,2.107 307.566,2.452 307.905 C 2.691 308.141,2.850 308.174,2.804 307.979 C 2.671 307.412,3.243 305.664,3.509 305.828 C 3.642 305.910,3.782 305.590,3.822 305.116 C 3.861 304.643,3.815 304.255,3.719 304.255 C 3.624 304.255,3.546 304.504,3.546 304.808 M0.805 342.578 C 0.777 342.954,0.903 343.262,1.086 343.262 C 1.490 343.262,1.531 342.310,1.137 342.067 C 0.983 341.971,0.833 342.201,0.805 342.578 M1.773 347.120 C 1.773 347.291,2.000 347.619,2.277 347.849 C 2.691 348.192,2.747 348.137,2.590 347.538 C 2.404 346.825,1.773 346.502,1.773 347.120 " stroke="none" fill="#3d72a344" fill-rule="evenodd"></path><path id="path2" d="M241.312 97.061 C 240.226 97.323,239.892 97.808,240.936 97.609 C 241.441 97.512,241.941 97.293,242.047 97.121 C 242.154 96.949,242.191 96.827,242.131 96.850 C 242.071 96.872,241.702 96.968,241.312 97.061 " stroke="none" fill="#3d72a344" fill-rule="evenodd"></path><path id="path3" d="M241.312 97.061 C 240.226 97.323,239.892 97.808,240.936 97.609 C 241.441 97.512,241.941 97.293,242.047 97.121 C 242.154 96.949,242.191 96.827,242.131 96.850 C 242.071 96.872,241.702 96.968,241.312 97.061 " stroke="none" fill="#3d72a344" fill-rule="evenodd"></path><path id="path4" d="M241.312 97.061 C 240.226 97.323,239.892 97.808,240.936 97.609 C 241.441 97.512,241.941 97.293,242.047 97.121 C 242.154 96.949,242.191 96.827,242.131 96.850 C 242.071 96.872,241.702 96.968,241.312 97.061 " stroke="none" fill="#3d72a344" fill-rule="evenodd"></path></g></svg>